<svg viewbox="0 0 256 256" width="144px" height="144px"  version="1.1" xmlns="http://www.w3.org/2000/svg">
  <rect x="0" y="0" width="256" height="256" rx="50" ry="50"
    style="fill:#185718;"/>
  <g transform="translate(36 10)">
    <rect x="0" y="0" width="74" height="74" rx="10" ry="10"
    style="fill:#FFFFFF; stroke:#000000; stroke-width:6;"/>
    <circle cx="16" cy="16" r="6" stroke="#000000"/>
    <circle cx="36" cy="36" r="6" stroke="#000000"/>
    <circle cx="56" cy="56" r="6" stroke="#000000"/>
  </g>
  <g transform="translate(146 10)">
    <rect x="0" y="0" width="74" height="74" rx="10" ry="10"
    style="fill:#FFFFFF; stroke:#000000; stroke-width:6;"/>
    <circle cx="56" cy="16" r="6" stroke="#000000"/>
    <circle cx="36" cy="36" r="6" stroke="#000000"/>
    <circle cx="16" cy="56" r="6" stroke="#000000"/>
  </g>
  <g transform="translate(91 91)">
    <rect x="0" y="0" width="74" height="74" rx="10" ry="10"
    style="fill:#FFFFFF; stroke:#000000; stroke-width:6;"/>
    <circle cx="16" cy="16" r="6" stroke="#000000"/>
    <circle cx="56" cy="16" r="6" stroke="#000000"/>
    <circle cx="16" cy="36" r="6" stroke="#000000"/>
    <circle cx="56" cy="36" r="6" stroke="#000000"/>
    <circle cx="16" cy="56" r="6" stroke="#000000"/>
    <circle cx="56" cy="56" r="6" stroke="#000000"/>
  </g>
  <g transform="translate(91 173)">
    <rect x="0" y="0" width="74" height="74" rx="10" ry="10"
    style="fill:#FFFFFF; stroke:#000000; stroke-width:6;"/>
    <circle cx="16" cy="16" r="6" stroke="#000000"/>
    <circle cx="56" cy="16" r="6" stroke="#000000"/>
    <circle cx="16" cy="36" r="6" stroke="#000000"/>
    <circle cx="56" cy="36" r="6" stroke="#000000"/>
    <circle cx="16" cy="56" r="6" stroke="#000000"/>
    <circle cx="56" cy="56" r="6" stroke="#000000"/>
  </g>
</svg>
